/* XPM */
static char * C:\GitHub\MiSTer_i2c2oled\Pictures\Pix32\gameboyadvance_xpm[] = {
"128 32 2 1",
" 	c #FFFFFF",
".	c #000000",
"..........        .............................................................................................     .......     ",
"........           .....      .........     ......      .....            .......           ..........       ...     ......     .",
"......             .....      ........      ......      .....            .......            .......           ..     ....      .",
"....               ....        .......      .....       .....            .......             .....             .     ....     ..",
"...           ..   ....        .......      .....       ....             .......             ....              ..    ...     ...",
"..        ............         ......       .....       ....     ..............     ....      ...     .....     .     ..     ...",
"..      ..............         ......        ...        ....     ..............     .....     ..     .......    .     .     ....",
".      ...............         ......        ...         ...    ...............     .....     ..     .......     .         .....",
".     ...............     .    .....         ..          ...    ...............    .....     ..     ........     .         .....",
"     ................    ..     ....         ..          ...           ........              ..     .........    ..       ......",
"     ...............     ..     ....         .     .     ..            ........             ...    ..........    ..      .......",
"    .....         ..            ...     .         ..     ..            .......              ...    .........     ...     .......",
"    .....        ..             ...    ..         ..     ..           ........               ..    .........     ...    ........",
"    .....        ..             ..     ..        ...     ..           ........               ..    .........     ...    ........",
"     ....        .              ..     ..        ...     ..    ...............    ......     ..    .........    ...     ........",
"     .......     .     .....     .    ....       ...     ..    ...............    .......    ..     .......     ...     ........",
".     ......          ......          ....      ....     ..    ...............    .......    ..     ......      ...    .........",
".       ....          ......          ....      .....    .             ......     ......     ...     ....      ....    .........",
"..              .    .......         .....     ......    .            .......               ....              .....    .........",
"...                  .......         ......    ......    .            .......               .....            ......    .........",
"....                .........        ......    ......                 .......              .......          ......     .........",
".......      ..     .........       .......   .......                 .......            ...........      ........     .........",
"................................................................................................................................",
"................................................................................................................................",
"..................................   ....      ....  .....  ...   ....  ....  ...      .        ................................",
"..................................   ....        ..  .....  ...   ....   ...  ..       .        ................................",
".................................  .  ...  ....  ...  ...  ...  .  ...    ..  .   ...  .  ......................................",
".................................  .  ...  .....  ..  ...  ...  .  ...     .  .  .......     ...................................",
"................................  ...  ..  .....  ...  .  ...  ...  ..  .     .  .......     ...................................",
"................................  ...  ..  ....  ....  .  ...  ...  ..  ..    .   ...  .  ......................................",
"...............................     ..  .        .....   ...     ..  .  ...   ..       .        ................................",
"...............................     ..  .      .......   ...     ..  .  ....  ...      .        ................................"};
