/* XPM */
static char * C:\GitHub\MiSTer_i2c2oled\Pictures\Pix32\turbografx_xpm[] = {
"128 24 2 1",
" 	c #FFFFFF",
".	c #000000",
".      .................................................     ...................................................................",
".      ................................................      ...................................................................",
"...  ..................................................  ..  .....................................................      ........",
"...  ..................................................  ..  ...................................................          ......",
"...  .....  ...  ....      ......     ......     ......  ..  ......     ......     ......    .....  ..  ......              ....",
"...  .....  ...  ....      ......      .....      .....  ..  ......      .....      ....     .....  ..  .....                ...",
"...  .....  ...  ....  ...  .....  ..  .....  ..  .....  ..........  ..  .....  ..  ....  ........  ..  ....                  ..",
"...  .....  ...  ....  ...  .....  ..  .....  ..  .....  ..........  ..  .....  ..  ....  ........  ..  ....                  ..",
"...  .....  ...  ....  ...  .....  ..  .....  ..  .....  ..........  ..  .....  ..  ....  ........  ..  ...   ...   ........   .",
"...  .....  ...  ....  ...  .....  ..  .....  ..  .....  ..........  ..  .....  ..  ....  ........  ..  ...   ...  ..........  .",
"...  .....  ...  ....  ...  .....  ..  .....  ..  .....  ..  ......  ..  .....  ..  ....  ........  .  ....   ...  ..      ..  .",
"...  .....  ...  ....  ...  .....  ..  .....  ..  .....  ..  ......  ..  .....  ..  ....  .........    ...     ..  ..           ",
"...  .....  ...  ....      ......      .....  ..  .....  ..  ......      .....      ....     ......   ....     ..  ..........   ",
"...  .....  ...  ....      ......     ......  ..  .....  ..  ......     ......      ....     ......   ....     ..  ..........   ",
"...  .....  ...  ....  .  .......  ..  .....  ..  .....  ..  ......    .......  ..  ....  .........    ...     ..  ..      ..   ",
"...  .....  ...  ....  .  .......  ..  .....  ..  .....  ..  ......    .......  ..  ....  ........     ....    ..  ..      ..  .",
"...  .....  ...  ....  .  .......  ..  .....  ..  .....  ..  ......  .  ......  ..  ....  ........  ..  ...   .... ..........  .",
"...  .....  ...  ....  ..  ......  ..  .....  ..  .....  ..  ......  .  ......  ..  ....  ........  ..  ...   ....  ........   .",
"...  .....  ...  ....  ..  ......  ..  .....  ..  .....  ..  ......  .  ......  ..  ....  ........  ..  ....                  ..",
"...  .....  ...  ....  ..  ......  ..  .....  ..  .....  ..  ......  .  ......  ..  ....  ........  ..  ....                  ..",
"...  .....  ...  ....  ..  ......  ..  .....  ..  .....  ..  ......  ..  .....  ..  ....  ........  ..  .....                ...",
"...  ......      ....  ...  .....      .....      .....      ......  ..  .....  ..  ....  ........  ..  ......              ....",
"...  ......     .....  ...  .....      .....     .......     ......  ..  .....  ..  ....  ........  ..  ........          ......",
"..................................................................................................................      ........"};
